<svg width="18" height="19" viewBox="0 0 18 19" fill="none" xmlns="http://www.w3.org/2000/svg">
<rect width="18" height="19" fill="#F5F5F5"/>
<path fill-rule="evenodd" clip-rule="evenodd" d="M2.68421 0H12.7895V1.72727H2.68421V13.8182H1V1.72727C1 0.777273 1.75789 0 2.68421 0Z" fill="white"/>
<path fill-rule="evenodd" clip-rule="evenodd" d="M15.3158 12H4.36842V17.2727C4.36842 18.2227 5.12632 19 6.05263 19H15.3158C16.2421 19 17 18.2227 17 17.2727V12C17 12 16.2421 12 15.3158 12ZM6.05263 17.2727H15.3158V12H6.05263V17.2727Z" fill="white"/>
<path d="M13 12.0318H12.8385C12.6415 13.7733 12.5253 14.7198 10.9444 14.7198H9.69703C9.33804 14.7198 9.3211 14.6606 9.3211 14.2565V10.9738H10.1689C11.0168 10.9738 11.0976 11.3798 11.0976 12.371H11.2421V9.31581H11.0976C11.0976 10.2903 11.0166 10.6888 10.1689 10.6888H9.32095V7.77821C9.32095 7.38173 9.33804 7.32251 9.69688 7.32251H10.9257C12.3165 7.32251 12.4783 8.0448 12.6043 9.59754H12.7663L12.5507 7H8V7.32251C8.63655 7.32251 8.73848 7.32251 8.73848 7.85044V14.1884C8.73848 14.7163 8.63789 14.7163 8 14.7163V15H12.677" fill="white"/>
<path d="M15.1708 6.55685L16.5044 4.04875C16.6379 3.80256 16.9096 3.29582 17.6492 3.28303V3C17.4428 3.02229 17.1003 3.02229 16.8841 3.02229C16.5871 3.02229 16.2172 3.02229 15.9926 3V3.28322C16.2813 3.31831 16.3522 3.55307 16.3522 3.74208C16.3522 3.88223 16.3081 3.97683 16.2442 4.09334L15.0542 6.33857L13.7206 3.79926C13.658 3.67151 13.6492 3.63449 13.6492 3.5994C13.6492 3.49375 13.7475 3.29408 14.0459 3.28303V3C13.7573 3.02229 13.3165 3.02229 13.0195 3.02229C12.7861 3.02229 12.3356 3.02229 12.1179 3V3.28322C12.6129 3.28322 12.7749 3.30745 12.974 3.67151L14.7128 6.9936L13.1448 9.97335C12.7579 10.702 12.1723 10.7148 12 10.7148V10.9981C12.206 10.9758 12.5489 10.9758 12.7651 10.9758C13.0083 10.9758 13.432 10.9758 13.6565 10.9981V10.7148C13.3777 10.6798 13.297 10.445 13.297 10.256C13.297 10.1044 13.3411 10.0212 13.3865 9.93787L14.8283 7.20064L16.3964 10.1988C16.4673 10.3285 16.4673 10.3636 16.4673 10.3987C16.4673 10.4909 16.3865 10.6927 16.0709 10.7168V11C16.3595 10.9777 16.8004 10.9777 17.0974 10.9777C17.3307 10.9777 17.7812 10.9777 18 11V10.7168C17.4227 10.7168 17.3318 10.6594 17.1527 10.3285" fill="white"/>
<path d="M9.83856 3H4.16583L4 5.60051H4.17655C4.30356 3.6528 4.44307 3.31182 5.96654 3.31182C6.14309 3.31182 6.42992 3.31182 6.50885 3.31182C6.69644 3.34701 6.69644 3.48989 6.69644 3.7605V10.1614C6.69644 10.5863 6.66672 10.716 5.83921 10.716H5.56034V11C6.03167 10.9891 6.52282 10.9776 7.00471 10.9776C7.48514 10.9776 7.97775 10.9891 8.44876 11V10.716H8.1746C7.35943 10.716 7.33003 10.5863 7.33003 10.1614V3.76069C7.33003 3.50097 7.33003 3.36003 7.5069 3.31201H8.04596C9.54913 3.31201 9.69628 3.65105 9.82313 5.6007H10" fill="white"/>
</svg>
