<svg width="26" height="26" viewBox="0 0 26 26" fill="none" xmlns="http://www.w3.org/2000/svg">
<g clip-path="url(#clip0_302_16)">
<rect width="26" height="26" rx="4" fill="black"/>
<path d="M18.3333 16.7229C17.6578 16.7229 17.0533 16.994 16.5911 17.4187L10.2533 13.6687C10.2978 13.4608 10.3333 13.253 10.3333 13.0361C10.3333 12.8193 10.2978 12.6114 10.2533 12.4036L16.52 8.68976C17 9.14157 17.6311 9.42169 18.3333 9.42169C19.8089 9.42169 21 8.21084 21 6.71084C21 5.21084 19.8089 4 18.3333 4C16.8578 4 15.6667 5.21084 15.6667 6.71084C15.6667 6.92771 15.7022 7.13554 15.7467 7.34337L9.48 11.0572C9 10.6054 8.36889 10.3253 7.66667 10.3253C6.19111 10.3253 5 11.5361 5 13.0361C5 14.5361 6.19111 15.747 7.66667 15.747C8.36889 15.747 9 15.4669 9.48 15.0151L15.8089 18.7741C15.7644 18.9639 15.7378 19.1627 15.7378 19.3614C15.7378 20.8163 16.9022 22 18.3333 22C19.7644 22 20.9289 20.8163 20.9289 19.3614C20.9289 17.9066 19.7644 16.7229 18.3333 16.7229Z" fill="white"/>
</g>
<defs>
<clipPath id="clip0_302_16">
<rect width="26" height="26" fill="white"/>
</clipPath>
</defs>
</svg>
