<svg width="20" height="22" viewBox="0 0 20 22" fill="none" xmlns="http://www.w3.org/2000/svg">
<path fill-rule="evenodd" clip-rule="evenodd" d="M14 0H2C0.9 0 0 0.9 0 2V16H2V2H14V0ZM17 4H6C4.9 4 4 4.9 4 6V9.26756C3.4022 9.61337 3 10.2597 3 11V15C3 15.7403 3.4022 16.3866 4 16.7324V20C4 21.1 4.9 22 6 22H17C18.1 22 19 21.1 19 20V16.7324C19.5978 16.3866 20 15.7403 20 15V11C20 10.2597 19.5978 9.61337 19 9.26756V6C19 4.9 18.1 4 17 4ZM6 20V17H17V20H6ZM6 9H17V6H6V9ZM5.688 11.414V15.75H6.984V11.414H8.504V10.414H4.192V11.414H5.688ZM9.26331 10.414V15.75H12.9193V14.75H10.5593V13.582H12.6073V12.574H10.5593V11.414H12.9193V10.414H9.26331ZM17.1735 15.75H18.7815L16.9713 13.0964L18.7255 10.414H17.2935L16.2981 12.1096L15.1415 10.414H13.5335L15.3615 13.0938L13.5975 15.75H14.9975L16.0209 14.0604L17.1735 15.75Z" fill="black"/>
</svg>
