<svg width="217" height="56" viewBox="0 0 217 56" fill="none" xmlns="http://www.w3.org/2000/svg">
<g filter="url(#filter0_d_2_19)">
<path d="M13.5239 34.672C11.6999 34.672 10.0039 34.4 8.43594 33.856C6.86794 33.28 5.47594 32.464 4.25994 31.408C3.07594 30.352 2.14794 29.056 1.47594 27.52C0.803938 25.984 0.467938 24.224 0.467938 22.24C0.467938 20.096 0.771938 18.192 1.37994 16.528C1.98794 14.864 2.86794 13.472 4.01994 12.352C5.17194 11.232 6.53194 10.384 8.09994 9.808C9.69994 9.232 11.4759 8.944 13.4279 8.944C14.8039 8.944 16.1959 9.088 17.6039 9.376C19.0439 9.632 20.2759 10.016 21.2999 10.528V17.248C20.1799 16.704 19.0919 16.256 18.0359 15.904C16.9799 15.552 15.8919 15.376 14.7719 15.376C12.9159 15.376 11.3799 15.84 10.1639 16.768C8.94794 17.664 8.33994 19.152 8.33994 21.232C8.33994 23.472 8.85194 25.184 9.87594 26.368C10.9319 27.52 12.6919 28.096 15.1559 28.096C16.3399 28.096 17.4759 27.872 18.5639 27.424C19.6839 26.976 20.6279 26.528 21.3959 26.08V32.704C20.2759 33.344 19.0919 33.824 17.8439 34.144C16.6279 34.496 15.1879 34.672 13.5239 34.672ZM37.8074 34.72C35.5034 34.72 33.4714 34.384 31.7114 33.712C29.9514 33.008 28.5594 31.92 27.5354 30.448C26.5434 28.944 26.0474 27.008 26.0474 24.64V9.664H33.9674V24.064C33.9674 25.408 34.2714 26.416 34.8794 27.088C35.5194 27.76 36.5114 28.096 37.8554 28.096C39.1994 28.096 40.1754 27.76 40.7834 27.088C41.3914 26.416 41.6954 25.408 41.6954 24.064V9.664H49.0874V24.64C49.0874 28.16 48.0634 30.72 46.0154 32.32C43.9994 33.92 41.2634 34.72 37.8074 34.72ZM55.7808 39.856C55.4608 39.856 54.9968 39.84 54.3888 39.808C53.8128 39.776 53.2208 39.696 52.6128 39.568V34.528C53.2528 34.592 53.6688 34.624 53.8608 34.624C54.0848 34.656 54.2448 34.672 54.3408 34.672C54.7888 34.672 55.2208 34.64 55.6368 34.576C56.0528 34.544 56.4208 34.4 56.7408 34.144C57.0928 33.92 57.3648 33.52 57.5568 32.944C57.7808 32.368 57.8928 31.568 57.8928 30.544V10.048C57.8928 8.832 58.0048 7.744 58.2288 6.784C58.4528 5.792 58.7888 4.928 59.2368 4.192C59.6848 3.456 60.2448 2.848 60.9168 2.368C61.5888 1.856 62.3728 1.472 63.2688 1.216C64.1968 0.959998 65.2208 0.831998 66.3408 0.831998C66.7888 0.831998 67.3488 0.879998 68.0208 0.975999C68.6928 1.04 69.1568 1.104 69.4128 1.168V6.256C69.2208 6.192 68.9328 6.144 68.5488 6.112C68.1968 6.048 67.9088 6.016 67.6848 6.016C67.2368 6.016 66.7888 6.048 66.3408 6.112C65.9248 6.144 65.5408 6.288 65.1888 6.544C64.8688 6.768 64.6128 7.152 64.4208 7.696C64.2288 8.24 64.1328 9.024 64.1328 10.048V30.544C64.1328 31.76 64.0208 32.864 63.7968 33.856C63.5728 34.848 63.2368 35.712 62.7888 36.448C62.3408 37.216 61.7808 37.84 61.1088 38.32C60.4368 38.832 59.6528 39.216 58.7568 39.472C57.8928 39.728 56.9008 39.856 55.7808 39.856ZM78.7784 43.408C77.9144 43.408 77.0504 43.328 76.1864 43.168C75.3544 43.008 74.6184 42.784 73.9784 42.496V36.112C74.5864 36.304 75.1144 36.448 75.5624 36.544C76.0424 36.64 76.5224 36.688 77.0024 36.688C77.7384 36.688 78.3944 36.512 78.9704 36.16C79.5464 35.84 80.0264 35.264 80.4104 34.432C80.7944 33.6 81.0664 32.4 81.2264 30.832L81.4184 35.44L70.9544 9.664H80.0264L85.0664 25.984H84.3464L89.2904 9.664H97.8344L88.4744 33.952C87.5784 36.256 86.6184 38.096 85.5944 39.472C84.5704 40.88 83.4824 41.888 82.3304 42.496C81.1784 43.104 79.9944 43.408 78.7784 43.408ZM123.95 17.488V34H115.982V19.312C115.982 18.672 115.902 18.112 115.742 17.632C115.582 17.12 115.326 16.704 114.974 16.384C114.622 16.064 114.174 15.824 113.63 15.664C113.086 15.504 112.43 15.424 111.662 15.424C110.99 15.424 110.382 15.52 109.838 15.712C109.326 15.872 108.942 16.048 108.686 16.24V34H100.766V11.728C101.342 11.408 102.142 11.088 103.166 10.768C104.19 10.448 105.326 10.16 106.574 9.904C107.822 9.616 109.086 9.392 110.366 9.232C111.646 9.04 112.814 8.944 113.87 8.944C116.014 8.944 117.838 9.2 119.342 9.712C120.846 10.224 121.982 11.104 122.75 12.352C123.55 13.6 123.95 15.312 123.95 17.488ZM115.982 13.504C116.974 12.608 118.206 11.824 119.678 11.152C121.15 10.48 122.702 9.952 124.334 9.568C125.998 9.152 127.534 8.944 128.942 8.944C131.086 8.944 132.91 9.2 134.414 9.712C135.918 10.224 137.054 11.104 137.822 12.352C138.622 13.6 139.022 15.312 139.022 17.488V34H131.054V19.312C131.054 18.672 130.974 18.112 130.814 17.632C130.654 17.12 130.398 16.704 130.046 16.384C129.694 16.064 129.246 15.824 128.702 15.664C128.158 15.504 127.502 15.424 126.734 15.424C126.062 15.424 125.454 15.52 124.91 15.712C124.398 15.904 124.014 16.128 123.758 16.384L115.982 13.504ZM145.159 34V10.048H153.127L153.175 34H145.159ZM145.063 6.544V0.639997H153.223V6.544H145.063ZM159.266 11.728C159.842 11.408 160.642 11.088 161.666 10.768C162.69 10.448 163.826 10.16 165.074 9.904C166.322 9.616 167.586 9.392 168.866 9.232C170.146 9.04 171.314 8.944 172.37 8.944C174.514 8.944 176.37 9.2 177.938 9.712C179.506 10.224 180.706 11.104 181.538 12.352C182.402 13.6 182.834 15.312 182.834 17.488V34H174.914V19.312C174.914 18.672 174.818 18.112 174.626 17.632C174.466 17.12 174.21 16.704 173.858 16.384C173.538 16.064 173.09 15.824 172.514 15.664C171.97 15.504 171.314 15.424 170.546 15.424C169.874 15.424 169.202 15.52 168.53 15.712C167.89 15.872 167.442 16.048 167.186 16.24V34H159.266V11.728ZM199.355 35.056C196.315 35.056 194.075 34.368 192.635 32.992C191.195 31.616 190.475 29.664 190.475 27.136V15.616H187.067V9.664H190.475V2.992H198.827V9.664H204.011V15.616H198.827V26.272C198.827 26.976 199.003 27.504 199.355 27.856C199.707 28.208 200.251 28.384 200.987 28.384C201.435 28.384 201.947 28.288 202.523 28.096C203.099 27.872 203.595 27.6 204.011 27.28V34C203.243 34.416 202.459 34.688 201.659 34.816C200.859 34.976 200.091 35.056 199.355 35.056Z" fill="white"/>
</g>
<defs>
<filter id="filter0_d_2_19" x="0.467957" y="0.639984" width="215.543" height="54.768" filterUnits="userSpaceOnUse" color-interpolation-filters="sRGB">
<feFlood flood-opacity="0" result="BackgroundImageFix"/>
<feColorMatrix in="SourceAlpha" type="matrix" values="0 0 0 0 0 0 0 0 0 0 0 0 0 0 0 0 0 0 127 0" result="hardAlpha"/>
<feOffset dx="8" dy="8"/>
<feGaussianBlur stdDeviation="2"/>
<feComposite in2="hardAlpha" operator="out"/>
<feColorMatrix type="matrix" values="0 0 0 0 0 0 0 0 0 0 0 0 0 0 0 0 0 0 0.125 0"/>
<feBlend mode="normal" in2="BackgroundImageFix" result="effect1_dropShadow_2_19"/>
<feBlend mode="normal" in="SourceGraphic" in2="effect1_dropShadow_2_19" result="shape"/>
</filter>
</defs>
</svg>
